<svg width="20" height="20" viewBox="0 0 20 20" fill="none" xmlns="http://www.w3.org/2000/svg">
<path d="M3.55205 0.0432529C3.2342 0.125376 2.90849 0.305265 2.57494 0.590742C2.20606 0.907505 0.883618 2.24885 0.667788 2.52651C-0.207302 3.64104 -0.222999 5.37346 0.624622 7.61034C1.65668 10.3439 3.5913 13.1126 6.03998 15.3612C9.41477 18.4624 13.9354 20.4685 16.2624 19.9054C16.6078 19.8233 17.1807 19.5573 17.4436 19.3579C17.7105 19.1585 19.4842 17.3439 19.649 17.1054C19.9551 16.6635 20.0728 16.073 19.9551 15.5724C19.8217 15.0132 19.7785 14.9623 18.0715 13.2573C16.3488 11.5405 16.2938 11.4975 15.7248 11.3802C15.2736 11.2863 14.8144 11.3685 14.371 11.6227C14.269 11.6852 13.7824 12.1271 13.2918 12.612L12.4011 13.488L12.1146 13.3394C11.4122 12.9757 10.8942 12.6277 10.1211 11.9942C9.32843 11.345 8.22182 10.207 7.60965 9.40924C7.16622 8.83046 6.5148 7.76286 6.51088 7.61816C6.51088 7.59079 6.81696 7.27011 7.18976 6.90643C7.97459 6.14385 8.2846 5.78798 8.46119 5.45167C8.68095 5.02541 8.72411 4.48574 8.57107 4.03993C8.41803 3.58629 8.26891 3.41422 6.76987 1.91645C5.28654 0.438227 5.05894 0.242695 4.63513 0.0980015C4.34081 -0.00758553 3.85421 -0.0310497 3.55205 0.0432529ZM4.46246 1.14214C4.57234 1.20471 5.20021 1.79522 6.0439 2.63992C7.57041 4.16507 7.62927 4.23546 7.62534 4.63825C7.62534 4.99412 7.53116 5.11926 6.50695 6.13994C5.98896 6.65223 5.53768 7.12542 5.50629 7.1919C5.4592 7.27403 5.44743 7.38743 5.4592 7.57906C5.47097 7.81369 5.50237 7.90364 5.74174 8.37683C6.28328 9.44834 6.99748 10.3908 8.17865 11.5953C9.35198 12.7919 10.5214 13.6836 11.7261 14.3014C12.1538 14.5204 12.2362 14.5517 12.4325 14.5478C12.5659 14.5478 12.7071 14.5204 12.7896 14.4774C12.8641 14.4383 13.3507 13.9847 13.8687 13.4724C14.5358 12.8115 14.8615 12.5182 14.9871 12.4634C15.2225 12.3579 15.5286 12.3579 15.7445 12.4634C15.9799 12.5808 18.7543 15.3417 18.8759 15.5841C18.9427 15.7132 18.9701 15.8305 18.9701 15.9987C18.9701 16.4015 18.8877 16.511 17.7732 17.6255C16.6706 18.7283 16.5685 18.8026 15.9799 18.9356C15.4109 19.0607 14.4573 18.959 13.492 18.6735C12.0204 18.2395 10.0426 17.1992 8.4141 16.0026C5.27869 13.7031 2.58671 10.1875 1.46832 6.93771C0.934632 5.39301 0.875769 4.2863 1.28388 3.46506C1.40946 3.20305 1.52718 3.07009 2.34341 2.24494C2.8457 1.73656 3.32838 1.2751 3.41078 1.21644C3.76396 0.973986 4.12498 0.946611 4.46246 1.14214Z" fill="#CC2232"/>
</svg>
