<svg width="189" height="59" viewBox="0 0 189 59" fill="none" xmlns="http://www.w3.org/2000/svg">
<path fill-rule="evenodd" clip-rule="evenodd" d="M114.531 41.3591H91.6127L80.6093 30.4954V27.8668L91.6127 17.0031H116.444V3.66765e-06H84.7828C84.0308 -0.000843803 83.286 0.145183 82.5913 0.429679C81.8967 0.714174 81.2659 1.13152 80.7352 1.65768L66.7337 15.4875C66.201 16.0116 65.7785 16.6344 65.4904 17.3202C65.2022 18.006 65.0542 18.7412 65.0547 19.4837V38.8845C65.0566 40.3852 65.6603 41.824 66.7337 42.8866L80.7352 56.7164C81.2669 57.2407 81.8981 57.6564 82.5926 57.9398C83.2871 58.2233 84.0313 58.3688 84.7828 58.3681H120.006L116.827 43.2122C116.721 42.6888 116.433 42.2181 116.015 41.8802C115.596 41.5424 115.072 41.3582 114.531 41.3591Z" fill="#CC2232"/>
<path fill-rule="evenodd" clip-rule="evenodd" d="M173.127 41.3592L161.962 30.3356V28.0326L173.127 17.0031H187.62V1.14474e-05H168.366C167.614 -0.00148754 166.869 0.144242 166.174 0.428775C165.479 0.713308 164.849 1.131 164.319 1.65769L147.349 18.4062V2.1846C147.347 1.60467 147.113 1.04902 146.697 0.639501C146.281 0.229981 145.718 9.32926e-06 145.13 1.14474e-05H121.271V17.0031H125.24C126.536 17.0031 127.779 17.5114 128.696 18.4163C129.612 19.3212 130.127 20.5484 130.127 21.8281V58.3622H147.349V39.9561L164.313 56.7164C165.389 57.7751 166.847 58.3691 168.366 58.3682H189V41.3592H173.127Z" fill="#CC2232"/>
<path fill-rule="evenodd" clip-rule="evenodd" d="M44.9729 1.6575C44.4412 1.13319 43.81 0.717456 43.1155 0.43404C42.421 0.150625 41.6768 0.00508609 40.9253 0.0057395H0V58.368H40.9253C41.6768 58.3686 42.421 58.2231 43.1155 57.9397C43.81 57.6562 44.4412 57.2405 44.9729 56.7162L59.0164 42.8509C59.5495 42.3259 59.9723 41.7021 60.2604 41.0153C60.5486 40.3284 60.6964 39.5922 60.6954 38.8488V19.5249C60.6967 18.7815 60.549 18.0451 60.2609 17.3583C59.9727 16.6714 59.5498 16.0476 59.0164 15.5228L44.9729 1.6575ZM44.3433 30.5959L33.4059 41.359H17.2156V17.0029H33.4059L44.3433 27.7719V30.5959Z" fill="#CC2232"/>
</svg>
