<svg width="102" height="32" viewBox="0 0 102 32" fill="none" xmlns="http://www.w3.org/2000/svg">
<path fill-rule="evenodd" clip-rule="evenodd" d="M61.3004 22.2206H49.034L43.1446 16.406V14.9991L49.034 9.18453H62.3243V0.0839863H45.3784C44.9759 0.0835327 44.5773 0.161691 44.2055 0.313961C43.8337 0.466232 43.496 0.689607 43.212 0.971226L35.718 8.37334C35.4329 8.65385 35.2067 8.98721 35.0525 9.35426C34.8983 9.72132 34.8191 10.1148 34.8193 10.5122V20.8961C34.8204 21.6993 35.1435 22.4695 35.718 23.0382L43.212 30.4403C43.4966 30.7209 43.8344 30.9434 44.2061 31.0951C44.5778 31.2468 44.9762 31.3247 45.3784 31.3243H64.2307L62.5297 23.2124C62.4725 22.9323 62.3188 22.6804 62.0947 22.4995C61.8706 22.3187 61.5899 22.2201 61.3004 22.2206Z" fill="#CC2232"/>
<path fill-rule="evenodd" clip-rule="evenodd" d="M92.6635 22.2206L86.6875 16.3205V15.0879L92.6635 9.18454H100.421V0.0839905H90.1152C89.7126 0.0831882 89.3139 0.161187 88.942 0.313478C88.5702 0.465768 88.2326 0.689328 87.9488 0.97123L78.8661 9.93552V1.25325C78.8652 0.942849 78.7397 0.645452 78.5171 0.426264C78.2945 0.207077 77.993 0.0839894 77.6786 0.0839905H64.9082V9.18454H67.0329C67.7266 9.18454 68.3919 9.45662 68.8824 9.94094C69.373 10.4252 69.6486 11.0821 69.6486 11.767V31.3212H78.8661V21.4696L87.9456 30.4403C88.5217 31.0069 89.3019 31.3249 90.1152 31.3243H101.159V22.2206H92.6635Z" fill="#CC2232"/>
<path fill-rule="evenodd" clip-rule="evenodd" d="M24.0708 0.971231C23.7862 0.690606 23.4484 0.468091 23.0767 0.316399C22.705 0.164707 22.3067 0.0868097 21.9044 0.0871594H0V31.3243H21.9044C22.3067 31.3247 22.705 31.2468 23.0767 31.0951C23.4484 30.9434 23.7862 30.7209 24.0708 30.4403L31.5873 23.0191C31.8727 22.7382 32.0989 22.4043 32.2532 22.0367C32.4074 21.6691 32.4865 21.275 32.486 20.8771V10.5344C32.4867 10.1365 32.4076 9.74237 32.2534 9.37474C32.0992 9.00711 31.8728 8.67324 31.5873 8.39236L24.0708 0.971231ZM23.7338 16.4599L17.8798 22.2206H9.21431V9.18454H17.8798L23.7338 14.9484V16.4599Z" fill="#CC2232"/>
</svg>
