<svg width="240" height="75" viewBox="0 0 240 75" fill="none" xmlns="http://www.w3.org/2000/svg">
<path fill-rule="evenodd" clip-rule="evenodd" d="M144.944 52.7659H115.96L102.044 39.0094V35.6808L115.96 21.9244H147.364V0.393803H107.322C106.371 0.39273 105.429 0.577641 104.551 0.93789C103.672 1.29814 102.874 1.82661 102.203 2.49288L84.4955 20.0052C83.8218 20.6688 83.2875 21.4575 82.9231 22.3259C82.5587 23.1943 82.3714 24.1253 82.3721 25.0655V49.6322C82.3745 51.5325 83.138 53.3545 84.4955 54.7L102.203 72.2123C102.876 72.8763 103.674 73.4027 104.552 73.7616C105.43 74.1205 106.372 74.3047 107.322 74.3039H151.868L147.849 55.1123C147.714 54.4495 147.351 53.8535 146.821 53.4257C146.291 52.9979 145.628 52.7647 144.944 52.7659Z" fill="white"/>
<path fill-rule="evenodd" clip-rule="evenodd" d="M219.052 52.7659L204.931 38.807V35.8908L219.052 21.9244H237.381V0.393813H213.03C212.079 0.391915 211.137 0.576449 210.258 0.936746C209.38 1.29704 208.582 1.82595 207.911 2.49289L186.45 23.7011V3.1601C186.448 2.42575 186.151 1.72215 185.625 1.20358C185.099 0.685018 184.387 0.393811 183.644 0.393813H153.469V21.9244H158.489C160.128 21.9244 161.7 22.5681 162.859 23.7139C164.019 24.8597 164.67 26.4138 164.67 28.0342V74.2964H186.45V50.9891L207.904 72.2123C209.265 73.5529 211.109 74.3051 213.03 74.3039H239.126V52.7659H219.052Z" fill="white"/>
<path fill-rule="evenodd" clip-rule="evenodd" d="M56.9747 2.49295C56.3022 1.82904 55.504 1.3026 54.6257 0.943717C53.7474 0.584835 52.8061 0.400543 51.8557 0.40137H0.0976562V74.304H51.8557C52.8061 74.3048 53.7474 74.1205 54.6257 73.7616C55.504 73.4028 56.3022 72.8763 56.9747 72.2124L74.7355 54.6551C75.4097 53.9903 75.9444 53.2004 76.3088 52.3307C76.6732 51.461 76.8601 50.5287 76.8589 49.5873V25.118C76.8605 24.1766 76.6738 23.2442 76.3093 22.3744C75.9449 21.5047 75.41 20.7148 74.7355 20.0503L56.9747 2.49295ZM56.1784 39.1369L42.3459 52.7659H21.8702V21.9244H42.3459L56.1784 35.561V39.1369Z" fill="white"/>
</svg>
