<svg width="27" height="27" viewBox="0 0 27 27" fill="none" xmlns="http://www.w3.org/2000/svg">
<path d="M13.1247 5.78411C2.94963 10.4387 0.439991 11.6072 0.270948 11.7824C0.0433904 12.0226 -0.0476327 12.3407 0.0238855 12.7043C0.0824003 13.0159 0.472499 13.4119 0.771575 13.4703C0.895107 13.4898 3.58029 13.7235 6.74009 13.9831C9.89989 14.2493 12.5006 14.4765 12.5201 14.496C12.5396 14.5155 12.7671 17.1121 13.0337 20.2671C13.2938 23.4221 13.5278 26.1032 13.5538 26.2265C13.6058 26.5186 14.0154 26.9211 14.3275 26.9795C14.6786 27.0445 14.9972 26.9536 15.2377 26.7264C15.4133 26.5576 16.5901 24.0518 21.2258 13.9572C26.6221 2.22016 26.9992 1.36975 26.9992 1.03218C27.0057 0.733564 26.9732 0.629696 26.8172 0.428453C26.6091 0.155802 26.3101 0 25.985 0C25.8419 0 21.6809 1.86961 13.1247 5.78411ZM23.8524 3.20041C23.8524 3.2134 21.9214 7.42002 19.5678 12.555C15.4263 21.5784 15.2768 21.8835 15.2442 21.6109C15.2247 21.4551 15.0557 19.54 14.8802 17.3653C14.6981 15.1841 14.5356 13.321 14.5161 13.2236C14.4641 12.9704 14.139 12.6134 13.8854 12.5355C13.7684 12.4965 11.8764 12.3213 9.67883 12.1395C7.48128 11.9642 5.55029 11.7954 5.40075 11.776L5.11468 11.737L6.27847 11.2112C6.91563 10.9191 11.1092 8.99751 15.5953 6.93964C23.3258 3.39516 23.8524 3.15497 23.8524 3.20041Z" fill="#CC2232"/>
</svg>
